<?xml version="1.0" encoding="utf-8"?>
<!-- Generator: Adobe Illustrator 17.1.0, SVG Export Plug-In . SVG Version: 6.00 Build 0)  -->
<!DOCTYPE svg PUBLIC "-//W3C//DTD SVG 1.1 Basic//EN" "http://www.w3.org/Graphics/SVG/1.1/DTD/svg11-basic.dtd">
<svg version="1.1" baseProfile="basic" id="Arrow_1_"
	 xmlns="http://www.w3.org/2000/svg" xmlns:xlink="http://www.w3.org/1999/xlink" x="0px" y="0px" width="500px" height="500px"
	 viewBox="0 0 500 500" xml:space="preserve">
  <metadata>
    <?xpacket begin="﻿" id="W5M0MpCehiHzreSzNTczkc9d"?>
    <x:xmpmeta xmlns:x="adobe:ns:meta/" x:xmptk="Adobe XMP Core 5.6-c011 79.156380, 2014/06/19-23:40:37        ">
     <rdf:RDF xmlns:rdf="http://www.w3.org/1999/02/22-rdf-syntax-ns#">
      <rdf:Description rdf:about=""
        xmlns:xmpMM="http://ns.adobe.com/xap/1.0/mm/"
        xmlns:stEvt="http://ns.adobe.com/xap/1.0/sType/ResourceEvent#"
        xmlns:xmp="http://ns.adobe.com/xap/1.0/"
        xmlns:xmpRights="http://ns.adobe.com/xap/1.0/rights/"
        xmlns:dc="http://purl.org/dc/elements/1.1/"
       xmpMM:DocumentID="xmp.did:bc4e50017b35671ce99c4e5050e8bf38"
       xmpMM:OriginalDocumentID="xmp.did:bc4e50017b35671ce99c4e5050e8bf38"
       xmpMM:InstanceID="xmp.iid:bc4e50017b35671ce99c4e5050e8bf38"
       xmp:ModifyDate="2015-04-17T14:34:56+02:00"
       xmp:MetadataDate="2015-04-17T14:34:56+02:00"
       xmpRights:Marked="True"
       xmpRights:WebStatement="http://www.adobe.com/legal/general-terms.html">
       <xmpMM:History>
        <rdf:Seq>
         <rdf:li
          stEvt:action="saved"
          stEvt:instanceID="xmp.iid:bc4e50017b35671ce99c4e5050e8bf38"
          stEvt:when="2015-04-17T14:34:56+02:00"/>
        </rdf:Seq>
       </xmpMM:History>
       <xmpRights:UsageTerms>
        <rdf:Alt>
         <rdf:li xml:lang="x-default">This work is licensed under the Adobe General Terms of Use http://www.adobe.com/legal/general-terms.html.</rdf:li>
        </rdf:Alt>
       </xmpRights:UsageTerms>
       <dc:publisher>
        <rdf:Bag>
         <rdf:li>Adobe Systems Incorporated</rdf:li>
        </rdf:Bag>
       </dc:publisher>
      </rdf:Description>
     </rdf:RDF>
    </x:xmpmeta>
    <?xpacket end="r"?>
  </metadata>
<path fill="#231F20" d="M18.5,407.4h462.9c10.2,0,18.5-8.3,18.5-18.5V111.1c0-0.8-0.4-1.4-0.4-2.2c-0.1-1.3-0.3-2.5-0.7-3.7
	c-0.4-1.2-1-2.3-1.7-3.4c-0.4-0.7-0.5-1.4-1-2c-0.3-0.3-0.6-0.5-0.9-0.8c-0.8-1-1.8-1.7-2.9-2.5c-0.9-0.7-1.8-1.4-2.8-1.9
	c-1-0.5-2-0.7-3.1-1.1c-1.3-0.4-2.5-0.7-3.8-0.8c-0.4,0-0.7-0.2-1.1-0.2H18.5c-0.4,0-0.8,0.2-1.2,0.2c-1.3,0.1-2.5,0.4-3.7,0.8
	c-1.1,0.3-2.2,0.6-3.2,1.1s-1.9,1.2-2.8,1.9c-1,0.8-2,1.5-2.9,2.5c-0.3,0.3-0.6,0.4-0.9,0.8c-0.5,0.6-0.6,1.3-1,2
	c-0.7,1.1-1.2,2.2-1.7,3.4c-0.4,1.2-0.6,2.4-0.7,3.7c-0.1,0.8-0.4,1.4-0.4,2.2v277.8C0,399.1,8.3,407.4,18.5,407.4z M37.1,370.3
	V148.8l201.6,155.2c3.3,2.6,7.3,3.8,11.3,3.8c4,0,8-1.3,11.3-3.8l201.6-155.2v221.6H37.1z M73,129.6h354L250,265.9L73,129.6z"/>
</svg>
