<?xml version="1.0" encoding="utf-8"?>
<!-- Generator: Adobe Illustrator 17.1.0, SVG Export Plug-In . SVG Version: 6.00 Build 0)  -->
<!DOCTYPE svg PUBLIC "-//W3C//DTD SVG 1.1 Basic//EN" "http://www.w3.org/Graphics/SVG/1.1/DTD/svg11-basic.dtd">
<svg version="1.1" baseProfile="basic" id="Arrow_1_"
	 xmlns="http://www.w3.org/2000/svg" xmlns:xlink="http://www.w3.org/1999/xlink" x="0px" y="0px" width="500px" height="500px"
	 viewBox="0 0 500 500" xml:space="preserve">
  <metadata>
    <?xpacket begin="﻿" id="W5M0MpCehiHzreSzNTczkc9d"?>
    <x:xmpmeta xmlns:x="adobe:ns:meta/" x:xmptk="Adobe XMP Core 5.6-c011 79.156380, 2014/06/19-23:40:37        ">
     <rdf:RDF xmlns:rdf="http://www.w3.org/1999/02/22-rdf-syntax-ns#">
      <rdf:Description rdf:about=""
        xmlns:xmpMM="http://ns.adobe.com/xap/1.0/mm/"
        xmlns:stEvt="http://ns.adobe.com/xap/1.0/sType/ResourceEvent#"
        xmlns:xmp="http://ns.adobe.com/xap/1.0/"
        xmlns:xmpRights="http://ns.adobe.com/xap/1.0/rights/"
        xmlns:dc="http://purl.org/dc/elements/1.1/"
       xmpMM:DocumentID="xmp.did:de45e28bf6f3dab9dab2539589c6fb98"
       xmpMM:OriginalDocumentID="xmp.did:de45e28bf6f3dab9dab2539589c6fb98"
       xmpMM:InstanceID="xmp.iid:de45e28bf6f3dab9dab2539589c6fb98"
       xmp:ModifyDate="2015-04-15T10:36:55+02:00"
       xmp:MetadataDate="2015-04-15T10:36:55+02:00"
       xmpRights:Marked="True"
       xmpRights:WebStatement="http://www.adobe.com/legal/general-terms.html">
       <xmpMM:History>
        <rdf:Seq>
         <rdf:li
          stEvt:action="saved"
          stEvt:instanceID="xmp.iid:de45e28bf6f3dab9dab2539589c6fb98"
          stEvt:when="2015-04-15T10:36:55+02:00"/>
        </rdf:Seq>
       </xmpMM:History>
       <xmpRights:UsageTerms>
        <rdf:Alt>
         <rdf:li xml:lang="x-default">This work is licensed under the Adobe General Terms of Use http://www.adobe.com/legal/general-terms.html.</rdf:li>
        </rdf:Alt>
       </xmpRights:UsageTerms>
       <dc:publisher>
        <rdf:Bag>
         <rdf:li>Adobe Systems Incorporated</rdf:li>
        </rdf:Bag>
       </dc:publisher>
      </rdf:Description>
     </rdf:RDF>
    </x:xmpmeta>
    <?xpacket end="r"?>
  </metadata>
<g>
	<path fill="#231F20" d="M364.6,0H135.4c-23.1,0-42,18.8-42,42v416c0,23.1,18.8,42,42,42h229.1c23.1,0,42-18.8,42-42V42
		C406.5,18.8,387.7,0,364.6,0z M375.1,458c0,5.8-4.7,10.5-10.5,10.5H135.4c-5.8,0-10.5-4.7-10.5-10.5v-79.5h250.2V458z M375.1,347.1
		H124.9V88.6h250.2V347.1z M375.1,57.2H124.9V42c0-5.8,4.7-10.6,10.5-10.6h229.1c5.8,0,10.5,4.7,10.5,10.6L375.1,57.2L375.1,57.2z"
		/>
	<circle fill="#231F20" cx="250" cy="423.6" r="21.1"/>
</g>
</svg>
